<svg xmlns="http://www.w3.org/2000/svg" viewBox="0 0 512 512">
  <defs>
    <linearGradient id="m" x1="172" y1="96" x2="458" y2="360" gradientUnits="userSpaceOnUse">
      <stop offset="0" stop-color="#2ea3ff"/>
      <stop offset=".52" stop-color="#5668ff"/>
      <stop offset="1" stop-color="#7c2cff"/>
    </linearGradient>
    <filter id="soft" x="-20%" y="-20%" width="140%" height="140%">
      <feDropShadow dx="0" dy="18" stdDeviation="18" flood-color="#000" flood-opacity=".35"/>
    </filter>
  </defs>
  <rect width="512" height="512" rx="54" fill="#0d0f13"/>
  <rect width="512" height="512" rx="54" fill="url(#m)" opacity=".08"/>
  <g filter="url(#soft)">
    <path
      d="M232 112H98C49 112 18 143 18 184c0 40 31 70 80 70h81c24 0 39 13 39 34s-16 36-43 36H62L18 382h160c62 0 102-37 102-92 0-52-39-86-100-86H99c-16 0-27-9-27-23s11-24 30-24h174z"
      fill="#f7f7f4"
    />
    <path
      d="M196 112h63l95 101 96-101h44v270h-62V220L354 302 196 112z"
      fill="url(#m)"
    />
  </g>
</svg>
